SONGS\Mar Dala.mkv                       : Devdas
Format                                   : Matroska
Format version                           : Version 1
File size                                : 150 MiB
Duration                                 : 4mn 34s
Overall bit rate                         : 4 587 Kbps

Video
ID                                       : 1
Format                                   : MPEG-4 Visual
Format profile                           : Advanced Simple@L5
Format settings, BVOP                    : Yes
Format settings, Matrix                  : Default (H.263)
Codec ID                                 : V_MPEG4/ISO/ASP
Codec ID/Info                            : Advanced Simple Profile
Duration                                 : 4mn 34s
Bit rate                                 : 3 856 Kbps
Width                                    : 1 280 pixels
Height                                   : 544 pixels
Display aspect ratio                     : 2.35:1
Frame rate                               : 29.970 fps
Color space                              : YUV
Chroma subsampling                       : 4:2:0
Bit depth                                : 8 bits
Scan type                                : Progressive
Compression mode                         : Lossy
Bits/(Pixel*Frame)                       : 0.185
Stream size                              : 126 MiB (84%)
Writing library                          : XviD 1.2.0.dev47 (UTC 2006-11-01)
Language                                 : English
Default                                  : Yes

Audio
ID                                       : 2
Format                                   : AC-3
Format/Info                              : Audio Coding 3
Mode extension                           : CM (complete main)
Codec ID                                 : A_AC3
Duration                                 : 4mn 34s
Bit rate mode                            : Constant
Bit rate                                 : 640 Kbps
Channel(s)                               : 6 channels
Channel positions                        : Front: L C R, Side: L R, LFE
Sampling rate                            : 48.0 KHz
Bit depth                                : 16 bits
Compression mode                         : Lossy
Stream size                              : 20.9 MiB (14%)
Default                                  : Yes